#!OML:ASF I:\golf\golf\golf 2\Subject 1\2002-09-07\Subject1.ASF
:FULLY-SPECIFIED
:DEGREES
149
root 1.56242 17.9323 -7.67045 13.0322 1.08743 -2.4535
lowerback 0.886022 1.61735 -5.14672
upperback 3.96497 2.1407 2.95097
thorax 3.31014 0.858958 6.00141
lowerneck -14.663 0.244908 0.282805
upperneck 41.1003 3.49729 -7.19549
head 17.9261 0.513221 -2.731
rclavicle 2.98177e-016 -5.1684e-015
rhumerus -36.4813 36.084 -97.3245
rradius 97.05
rwrist 2.78217
rhand -17.79 21.3405
rfingers 7.12502
rthumb 8.47305 -8.46957
lclavicle 2.98177e-016 -5.1684e-015
lhumerus -35.7916 -35.7756 102.764
lradius 90.6989
lwrist 16.8089
lhand -12.7761 42.8397
lfingers 7.12502
lthumb 13.309 72.3947
rfemur -37.2011 2.36914 17.3939
rtibia 13.2617
rfoot -4.5179 -2.6248
rtoes -8.07016
lfemur -9.04845 3.45089 -20.2233
ltibia 19.7526
lfoot -18.5325 1.82608
ltoes -4.67576
150
root 1.54151 17.918 -7.6228 13.2476 1.33934 -2.24588
lowerback 1.16545 1.60598 -5.25655
upperback 4.02219 2.11492 2.93467
thorax 3.21336 0.844878 6.03838
lowerneck -14.7644 0.204738 0.19739
upperneck 41.0584 3.45852 -7.17523
head 17.9242 0.487205 -2.71109
rclavicle -2.85256e-014 -2.54444e-014
rhumerus -36.2543 36.1264 -97.1106
rradius 96.9829
rwrist 3.08845
rhand -17.6702 21.3611
rfingers 7.12502
rthumb 8.58857 -8.44417
lclavicle -2.85256e-014 -2.54444e-014
lhumerus -35.4931 -35.8999 102.689
lradius 90.5488
lwrist 16.9701
lhand -12.8349 43.1385
lfingers 7.12502
lthumb 13.2524 72.6972
rfemur -37.4054 2.43841 17.145
rtibia 13.3779
rfoot -4.46119 -1.87397
rtoes -8.73516
lfemur -9.14334 3.22249 -20.3465
ltibia 19.8548
lfoot -18.7223 1.96188
ltoes -5.60936
151
root 1.51909 17.9079 -7.5734 13.4514 1.63942 -2.19656
lowerback 1.51589 1.61299 -5.20958
upperback 4.06536 2.10772 2.95969
thorax 3.06208 0.846553 6.02687
lowerneck -14.893 0.164496 0.129434
upperneck 41.0254 3.40326 -7.125
head 17.9327 0.46109 -2.68406
rclavicle -6.95746e-015 7.95139e-016
rhumerus -36.0615 36.1858 -96.9374
rradius 96.8977
rwrist 3.50355
rhand -17.8216 21.3773
rfingers 7.12502
rthumb 8.44247 -8.43396
lclavicle -6.95746e-015 7.95139e-016
lhumerus -35.3219 -36.1007 102.662
lradius 90.423
lwrist 17.2031
lhand -12.9553 43.5512
lfingers 7.12502
lthumb 13.1363 73.1174
rfemur -37.6051 2.47287 17.1308
rtibia 13.619
rfoot -4.44709 -1.1456
rtoes -8.56799
lfemur -9.28337 3.05184 -20.2618
ltibia 19.9909
lfoot -18.892 1.80176
ltoes -4.84769
152
root 1.49864 17.897 -7.51787 13.6195 1.95052 -2.23338
lowerback 1.70361 1.65169 -5.06065
upperback 4.18816 2.14995 3.01041
thorax 3.08088 0.867663 5.99201
lowerneck -14.9291 0.0430825 0.113966
upperneck 40.849 3.22219 -7.15063
head 17.8259 0.385695 -2.7165
rclavicle -2.64384e-014 -8.34896e-015
rhumerus -35.7968 36.2325 -96.6972
rradius 96.8344
rwrist 3.44834
rhand -18.1056 21.278
rfingers 7.12502
rthumb 8.16841 -8.54407
lclavicle -2.64384e-014 -8.34896e-015
lhumerus -35.0939 -36.4109 102.653
lradius 90.2366
lwrist 17.466
lhand -13.4414 43.3668
lfingers 7.12502
lthumb 12.6677 72.9626
rfemur -37.7098 2.59208 17.1695
rtibia 13.8685
rfoot -4.49739 -0.546934
rtoes -7.93504
lfemur -9.40971 2.98758 -20.095
ltibia 20.2104
lfoot -19.0886 1.72425
ltoes -4.97761
153
root 1.47879 17.8813 -7.4622 13.8886 2.25617 -2.14235
lowerback 1.7259 1.63043 -5.12962
upperback 4.34672 2.11886 3.13908
thorax 3.23282 0.838428 6.17097
lowerneck -15.013 -0.0674912 -0.0782682
upperneck 40.6487 3.15321 -7.25851
head 17.7297 0.315932 -2.73355
rclavicle 1.82882e-014 5.56597e-015
rhumerus -35.4155 36.5796 -96.2829
rradius 96.6919
rwrist 2.87174
rhand -18.6343 21.4911
rfingers 7.12502
rthumb 7.6581 -8.35028
lclavicle 1.82882e-014 5.56597e-015
lhumerus -34.7387 -36.4961 102.671
lradius 90.0774
lwrist 17.6156
lhand -13.766 44.4396
lfingers 7.12502
lthumb 12.3547 74.0546
rfemur -37.8864 2.73958 17.0288
rtibia 14.1016
rfoot -4.55217 -0.0285391
rtoes -7.09898
lfemur -9.67032 2.9664 -20.096
ltibia 20.4638
lfoot -19.228 1.88318
ltoes -7.11302
154
root 1.45683 17.8646 -7.40684 14.2098 2.62005 -1.95974
lowerback 1.86881 1.5824 -5.23028
upperback 4.46226 2.04797 3.2112
thorax 3.2789 0.793776 6.30325
lowerneck -15.2765 -0.0988923 -0.213884
upperneck 40.5868 3.17536 -7.29747
head 17.7669 0.296652 -2.72212
rclavicle -1.15295e-014 -8.34896e-015
rhumerus -34.9714 36.8244 -95.8866
rradius 96.4542
rwrist 2.78098
rhand -19.1198 21.9754
rfingers 7.12502
rthumb 7.18949 -7.88244
lclavicle -1.15295e-014 -8.34896e-015
lhumerus -34.3419 -36.5759 102.609
lradius 89.9088
lwrist 17.7303
lhand -13.9109 44.3943
lfingers 7.12502
lthumb 12.2151 74.0176
rfemur -38.0905 2.83038 16.7951
rtibia 14.349
rfoot -4.54895 0.468892
rtoes -6.37771
lfemur -9.97574 2.8657 -20.1518
ltibia 20.6473
lfoot -19.4055 1.7703
ltoes -7.97005
155
root 1.43158 17.8527 -7.3459 14.4052 2.94514 -1.87617
lowerback 2.14379 1.6565 -5.05902
upperback 4.58137 2.13758 3.10658
thorax 3.24291 0.844417 6.08795
lowerneck -15.4908 -0.191729 -0.0325854
upperneck 40.5567 2.94334 -7.21733
head 17.7874 0.241552 -2.76126
rclavicle -6.36111e-015 -7.95139e-016
rhumerus -34.6031 36.5025 -95.7513
rradius 96.3537
rwrist 2.94783
rhand -19.0325 21.8446
rfingers 7.12502
rthumb 7.27374 -8.01041
lclavicle -6.36111e-015 -7.95139e-016
lhumerus -34.0185 -37.133 102.407
lradius 89.6607
lwrist 17.9233
lhand -14.1172 44.1372
lfingers 7.12502
lthumb 12.0161 73.7723
rfemur -38.1349 3.03658 16.6347
rtibia 14.5572
rfoot -4.41898 0.921215
rtoes -6.58118
lfemur -10.094 2.75927 -20.0755
ltibia 20.7481
lfoot -19.6358 1.53967
ltoes -7.85372
156
root 1.40357 17.8455 -7.28342 14.509 3.26836 -1.87653
lowerback 2.49481 1.70685 -4.86419
upperback 4.72356 2.19131 3.08679
thorax 3.1921 0.876405 5.94692
lowerneck -15.5904 -0.302344 -0.0172183
upperneck 40.4342 2.73179 -7.13949
head 17.7247 0.170772 -2.76059
rclavicle 3.37934e-015 -5.56597e-015
rhumerus -34.3175 36.397 -95.6102
rradius 96.3359
rwrist 2.76884
rhand -18.8083 21.4859
rfingers 7.12502
rthumb 7.49024 -8.36149
lclavicle 3.37934e-015 -5.56597e-015
lhumerus -33.769 -37.5538 102.306
lradius 89.4277
lwrist 18.1115
lhand -14.3989 43.9127
lfingers 7.12502
lthumb 11.7445 73.5634
rfemur -38.1059 3.43768 16.4572
rtibia 14.7082
rfoot -4.03231 1.1874
rtoes -6.7261
lfemur -10.0482 2.46305 -19.8854
ltibia 20.7549
lfoot -19.7663 1.44742
ltoes -7.66205
157
root 1.37567 17.8422 -7.22532 14.6466 3.66838 -1.81363
lowerback 2.90088 1.67538 -4.89526
upperback 4.84772 2.12991 3.25501
thorax 3.09608 0.841864 6.13248
lowerneck -15.6682 -0.370416 -0.287679
upperneck 40.2935 2.72399 -7.1524
head 17.6636 0.12622 -2.71093
rclavicle -1.09332e-014 3.18055e-015
rhumerus -34.0355 36.6393 -95.19
rradius 96.2272
rwrist 2.61947
rhand -18.8568 21.7388
rfingers 7.12502
rthumb 7.44334 -8.11029
lclavicle -1.09332e-014 3.18055e-015
lhumerus -33.4784 -37.6039 102.48
lradius 89.1484
lwrist 18.3345
lhand -14.923 43.3032
lfingers 7.12502
lthumb 11.239 72.9822
rfemur -38.1661 3.81735 16.1546
rtibia 14.8201
rfoot -3.21929 1.38516
rtoes -6.67363
lfemur -9.98535 2.05772 -19.7407
ltibia 20.6465
lfoot -19.8421 1.37291
ltoes -7.63258
158
root 1.35001 17.8406 -7.17167 14.8368 4.0903 -1.70728
lowerback 3.31944 1.67343 -4.92059
upperback 4.94643 2.10824 3.39523
thorax 2.96237 0.829864 6.28439
lowerneck -15.7005 -0.463154 -0.460668
upperneck 40.1863 2.65881 -7.19566
head 17.6075 0.0709862 -2.70503
rclavicle 3.02153e-014 -1.03368e-014
rhumerus -33.6572 36.6916 -94.6838
rradius 96.0827
rwrist 2.50851
rhand -18.9291 22.1414
rfingers 7.12502
rthumb 7.37355 -7.7101
lclavicle 3.02153e-014 -1.03368e-014
lhumerus -33.0784 -37.783 102.619
lradius 88.7473
lwrist 18.6094
lhand -15.0536 42.8589
lfingers 7.12502
lthumb 11.1131 72.5446
rfemur -38.3849 3.98386 15.8793
rtibia 14.9747
rfoot -2.25828 1.62468
rtoes -7.69441
lfemur -9.93127 1.84806 -19.6622
ltibia 20.3702
lfoot -19.7981 1.23159
ltoes -8.20816
159
root 1.32631 17.8411 -7.11643 15.0387 4.44403 -1.65681
lowerback 3.71996 1.6707 -4.7997
upperback 5.07629 2.0896 3.4679
thorax 2.87704 0.822913 6.2828
lowerneck -15.8245 -0.527655 -0.561515
upperneck 40.1277 2.59443 -7.18485
head 17.6021 0.031884 -2.69141
rclavicle -7.95139e-015 7.15625e-015
rhumerus -33.0936 36.7017 -94.197
rradius 95.9086
rwrist 2.2758
rhand -18.8989 22.1958
rfingers 7.12502
rthumb 7.40273 -7.6547
lclavicle -7.95139e-015 7.15625e-015
lhumerus -32.6897 -37.9547 102.589
lradius 88.4446
lwrist 18.8918
lhand -14.3043 43.172
lfingers 7.12502
lthumb 11.8357 72.8176
rfemur -38.6642 3.99502 15.7651
rtibia 15.139
rfoot -1.35159 1.82845
rtoes -8.58976
lfemur -9.89766 1.68302 -19.5557
ltibia 20.1241
lfoot -19.6763 1.16596
ltoes -8.90227
160
root 1.30227 17.851 -7.04243 15.1941 5.4702 -1.56724
lowerback 4.07388 1.36251 -4.52709
upperback 5.22578 1.66906 3.60639
thorax 2.89793 0.614656 6.27677
lowerneck -16.0298 -0.539814 -0.7388
upperneck 40.1439 2.63952 -7.16128
head 17.6684 0.0236871 -2.64351
rclavicle 2.38542e-015 -8.74653e-015
rhumerus -32.5877 36.9261 -93.778
rradius 95.7241
rwrist 1.99705
rhand -18.7994 22.2379
rfingers 7.12502
rthumb 7.49875 -7.60917
lclavicle 2.38542e-015 -8.74653e-015
lhumerus -32.4323 -37.8879 102.604
lradius 88.281
lwrist 19.3004
lhand -13.7539 43.2762
lfingers 7.12502
lthumb 12.3664 72.8905
rfemur -38.6996 3.79477 15.5658
rtibia 15.3601
rfoot -0.438864 1.43059
rtoes -7.5558
lfemur -9.82839 1.04778 -19.2742
ltibia 19.9288
lfoot -19.6017 0.876194
ltoes -9.20411
161
root 1.27945 17.8506 -6.99147 15.5492 6.00871 -1.61715
lowerback 4.46667 1.24307 -4.19271
upperback 5.2812 1.50248 3.72799
thorax 2.76239 0.543255 6.20976
lowerneck -16.203 -0.574733 -0.921071
upperneck 40.1205 2.64875 -7.13795
head 17.7011 0.00147717 -2.59861
rclavicle -1.27222e-014 -2.78299e-014
rhumerus -32.0866 37.1365 -93.297
rradius 95.5635
rwrist 1.50724
rhand -18.6542 22.4483
rfingers 7.12502
rthumb 7.63896 -7.39377
lclavicle -1.27222e-014 -2.78299e-014
lhumerus -32.0837 -37.944 102.619
lradius 88.0608
lwrist 19.7667
lhand -13.946 43.5935
lfingers 7.12502
lthumb 12.1812 73.2188
rfemur -39.1457 3.65845 15.5587
rtibia 15.6184
rfoot 0.897659 1.47557
rtoes -5.22204
lfemur -10.1054 0.424107 -19.0054
ltibia 19.853
lfoot -19.4206 0.996276
ltoes -8.81417
